<svg xmlns="http://www.w3.org/2000/svg" width="54.103" height="42.154" viewBox="0 0 54.103 42.154">
  <g id="Group_38" data-name="Group 38" transform="translate(0)">
    <ellipse id="Ellipse_2" data-name="Ellipse 2" cx="2.293" cy="2.293" rx="2.293" ry="2.293" transform="translate(41.936 12.035)" fill="#00aaad"/>
    <circle id="Ellipse_3" data-name="Ellipse 3" cx="2.293" cy="2.293" r="2.293" transform="translate(31.73 14.328) rotate(-45)" fill="#00aaad"/>
    <ellipse id="Ellipse_4" data-name="Ellipse 4" cx="2.293" cy="2.293" rx="2.293" ry="2.293" transform="matrix(0.973, -0.23, 0.23, 0.973, 22.958, 12.623)" fill="#00aaad"/>
    <circle id="Ellipse_5" data-name="Ellipse 5" cx="2.293" cy="2.293" r="2.293" transform="translate(7.127 19.699) rotate(-45)" fill="#00aaad"/>
    <path id="Path_16" data-name="Path 16" d="M1440.411,215.135h-20.276a9,9,0,0,0-8.224,5.37h-7.618a9,9,0,0,0-8.993,8.993v10.67a9,9,0,0,0,8.993,8.994h1.3v6.925a1.2,1.2,0,0,0,2.011.89l8.6-7.815h8.366a8.879,8.879,0,0,0,6.627-2.929l5.91,5.373a1.2,1.2,0,0,0,2.011-.89v-6.926h1.3a9,9,0,0,0,8.993-8.992V224.127A9,9,0,0,0,1440.411,215.135ZM1447,234.8a6.6,6.6,0,0,1-6.588,6.588h-2.5a1.2,1.2,0,0,0-1.2,1.2V248l-6.929-6.3a1.2,1.2,0,0,0-.808-.313h-2.56a1.2,1.2,0,0,0,0,2.4h2.095l.909.826a6.5,6.5,0,0,1-4.849,2.14h-8.831a1.2,1.2,0,0,0-.809.313l-6.928,6.3V247.96a1.2,1.2,0,0,0-1.2-1.2h-2.5a6.6,6.6,0,0,1-6.589-6.589V229.5a6.6,6.6,0,0,1,6.589-6.589h6.942a8.982,8.982,0,0,0-.092,1.218v2.166a1.2,1.2,0,1,0,2.4,0v-2.166a6.6,6.6,0,0,1,6.588-6.588h20.276a6.6,6.6,0,0,1,6.588,6.588Z" transform="translate(-1395.3 -215.135)" fill="#00aaad"/>
    <path id="Path_17" data-name="Path 17" d="M1542.525,340.163h-3.043a6.6,6.6,0,0,1-6.588-6.588v-5.349a1.2,1.2,0,1,0-2.4,0v5.349a9,9,0,0,0,8.993,8.992h3.043a1.2,1.2,0,1,0,0-2.4Z" transform="translate(-1514.647 -313.911)" fill="#00aaad"/>
  </g>
</svg>
