<?xml version="1.0" encoding="utf-8"?>
<!-- Generator: Adobe Illustrator 24.2.3, SVG Export Plug-In . SVG Version: 6.00 Build 0)  -->
<svg version="1.1" id="Layer_1" xmlns="http://www.w3.org/2000/svg" xmlns:xlink="http://www.w3.org/1999/xlink" x="0px" y="0px"
	 viewBox="0 0 24 24" style="enable-background:new 0 0 24 24;" xml:space="preserve">
<style type="text/css">
	.st0{fill:#1068B3;}
</style>
<g>
	<path class="st0" d="M19.6,8c-0.6,0-1,0.5-1,1c0,0.6,0.5,1,1,1c0.6,0,1-0.5,1-1C20.6,8.4,20.2,8,19.6,8z"/>
	<circle class="st0" cx="15.5" cy="9" r="1"/>
	<path class="st0" d="M11.6,10c0.5-0.1,0.9-0.7,0.8-1.2c-0.1-0.5-0.7-0.9-1.2-0.8c-0.5,0.1-0.9,0.7-0.8,1.2
		C10.5,9.8,11.1,10.1,11.6,10z"/>
	<path class="st0" d="M3.9,10.7c-0.4,0.4-0.4,1,0,1.4s1,0.4,1.4,0c0.4-0.4,0.4-1,0-1.4C4.9,10.3,4.3,10.3,3.9,10.7z"/>
	<path class="st0" d="M20,2.7h-9C9.4,2.7,8,3.6,7.4,5H4C1.8,5,0,6.8,0,9v4.7c0,2.2,1.8,4,4,4h0.6v3.1c0,0.3,0.2,0.5,0.5,0.5
		c0.1,0,0.3,0,0.4-0.1l3.8-3.5H13c1.1,0,2.2-0.5,2.9-1.3l2.6,2.4c0.2,0.2,0.6,0.2,0.8,0c0.1-0.1,0.1-0.2,0.1-0.4v-3.1H20
		c2.2,0,4-1.8,4-4V6.6C24,4.4,22.2,2.7,20,2.7z M22.9,11.4c0,1.6-1.3,2.9-2.9,2.9h-1.1c-0.3,0-0.5,0.2-0.5,0.5v2.4l-3.1-2.8
		c-0.1-0.1-0.2-0.1-0.4-0.1h-1.1c-0.3,0-0.5,0.2-0.5,0.5c0,0.3,0.2,0.5,0.5,0.5h0.9l0.4,0.4c-0.5,0.6-1.3,1-2.2,0.9H9.1
		c-0.1,0-0.3,0-0.4,0.1l-3.1,2.8v-2.4c0-0.3-0.2-0.5-0.5-0.5H4c-1.6,0-2.9-1.3-2.9-2.9V9c0-1.6,1.3-2.9,2.9-2.9h3.1
		c0,0.2,0,0.4,0,0.5v1c0,0.3,0.2,0.5,0.5,0.5s0.5-0.2,0.5-0.5v-1C8.1,5,9.4,3.7,11,3.7h9c1.6,0,2.9,1.3,2.9,2.9L22.9,11.4z"/>
	<path class="st0" d="M12.4,14.3C12.4,14.3,12.4,14.3,12.4,14.3L12.4,14.3l-1.4,0c-1.6,0-2.9-1.3-2.9-2.9V9c0-0.3-0.2-0.5-0.5-0.5
		C7.3,8.5,7,8.7,7,9v2.4c0,2.2,1.8,4,4,4h1.3c0.3,0,0.5-0.2,0.5-0.5S12.7,14.3,12.4,14.3z"/>
</g>
</svg>
