<svg xmlns="http://www.w3.org/2000/svg" width="29.106" height="28.866" viewBox="0 0 29.106 28.866">
  <path id="Path_22" data-name="Path 22" d="M790.056,3242.263a10.3,10.3,0,0,1,7.693,17.154l1.257,1.257a2.485,2.485,0,0,1,2.631.029h0a2.508,2.508,0,0,1,.406.328l.542.542a.6.6,0,0,1-.845.845l-.543-.543a1.268,1.268,0,0,0-.21-.169h0a1.283,1.283,0,0,0-1.593.167c-.006.006-.01.013-.016.02l0,0a1.278,1.278,0,0,0,.016,1.788l3.877,3.877a1.278,1.278,0,1,0,1.808-1.808l-2.226-2.226a.6.6,0,0,1,.845-.845l2.227,2.227a2.473,2.473,0,0,1-3.5,3.5l-3.877-3.877a2.475,2.475,0,0,1-.379-3l-1.264-1.264a10.3,10.3,0,1,1-6.848-18Zm0,19.417a9.11,9.11,0,1,0-9.11-9.11A9.121,9.121,0,0,0,790.056,3261.679Z" transform="translate(-778.751 -3241.263)" fill="#fff" stroke="#fff" stroke-width="2"/>
</svg>
