<svg xmlns="http://www.w3.org/2000/svg" width="57.976" height="41.524" viewBox="0 0 57.976 41.524">
  <g id="Group_39" data-name="Group 39" transform="translate(0)">
    <path id="Path_18" data-name="Path 18" d="M3633.428,1589.25H3626.1a1.288,1.288,0,0,0,0,2.577h7.331a1.288,1.288,0,1,0,0-2.577Z" transform="translate(-3576.741 -1573.122)" fill="#00aaad"/>
    <path id="Path_19" data-name="Path 19" d="M3612.273,1485.7l-6.634,3.145a1.288,1.288,0,1,0,1.1,2.328l6.634-3.145a1.288,1.288,0,0,0-1.1-2.328Z" transform="translate(-3559.334 -1482.466)" fill="#00aaad"/>
    <path id="Path_20" data-name="Path 20" d="M3613.377,1671.141l-6.633-3.144a1.288,1.288,0,1,0-1.1,2.328l6.634,3.144a1.288,1.288,0,0,0,1.1-2.328Z" transform="translate(-3559.334 -1641.87)" fill="#00aaad"/>
    <path id="Path_21" data-name="Path 21" d="M3280.326,1470.326V1462.1a1.288,1.288,0,0,0-2.577,0v.958l-16.7,6.613h-8.738a4.486,4.486,0,0,0-4.306,3.254h-1.258a4.732,4.732,0,0,0-4.727,4.727v1.157a4.732,4.732,0,0,0,4.727,4.727H3248a4.489,4.489,0,0,0,3.563,3.187l4.277,13.056a3.7,3.7,0,0,0,3.51,2.558,3.63,3.63,0,0,0,1.156-.189,3.708,3.708,0,0,0,2.375-4.669l-3.5-10.688h1.661l16.7,6.612v.958a1.288,1.288,0,0,0,2.577,0v-8.222a8.01,8.01,0,0,0,0-15.814Zm-32.5,10.636h-1.083a2.152,2.152,0,0,1-2.149-2.15v-1.157a2.152,2.152,0,0,1,2.149-2.15h1.083Zm12.605,17.316a1.13,1.13,0,0,1-.73,1.425,1.1,1.1,0,0,1-.848-.062,1.111,1.111,0,0,1-.562-.657l-3.995-12.191h2.375Zm19.89-14.761v-1.963a1.288,1.288,0,0,0-2.577,0v3.406s0,0,0,.006,0,0,0,.006v5.662l-15.166-6.005v-7.411a1.288,1.288,0,1,0-2.577,0v7h-7.7a1.906,1.906,0,0,1-1.9-1.9v-8.157a1.906,1.906,0,0,1,1.9-1.9h7.7v1.327a1.288,1.288,0,1,0,2.577,0v-1.739l15.166-6.006v5.662s0,0,0,.006,0,0,0,.006v6.407a1.288,1.288,0,1,0,2.577,0v-4.965a5.436,5.436,0,0,1,0,10.566Z" transform="translate(-3242.02 -1460.815)" fill="#00aaad"/>
  </g>
</svg>
