<?xml version="1.0" encoding="utf-8"?>
<!-- Generator: Adobe Illustrator 24.2.3, SVG Export Plug-In . SVG Version: 6.00 Build 0)  -->
<svg version="1.1" id="Layer_1" xmlns="http://www.w3.org/2000/svg" xmlns:xlink="http://www.w3.org/1999/xlink" x="0px" y="0px"
	 viewBox="0 0 24 24" style="enable-background:new 0 0 24 24;" xml:space="preserve">
<style type="text/css">
	.st0{fill:#00AAAD;}
</style>
<g>
	<path class="st0" d="M23.5,10.1L23.5,10.1h-3c-0.3,0-0.5,0.2-0.5,0.5c0,0.3,0.2,0.5,0.5,0.5h3c0.3,0,0.5-0.2,0.5-0.5
		C24,10.3,23.8,10.1,23.5,10.1z"/>
	<path class="st0" d="M19.6,7C19.6,7,19.6,7,19.6,7l2.8-1.3c0.3-0.1,0.4-0.5,0.2-0.7c-0.1-0.3-0.4-0.4-0.7-0.2L19.2,6
		c-0.3,0.1-0.4,0.4-0.3,0.7C19,7,19.3,7.1,19.6,7z"/>
	<path class="st0" d="M22.4,15.5L22.4,15.5l-2.7-1.3c-0.3-0.1-0.6,0-0.7,0.2c-0.1,0.3,0,0.6,0.2,0.7c0,0,0,0,0,0l2.7,1.3
		c0.3,0.1,0.6,0,0.7-0.3C22.7,16,22.6,15.7,22.4,15.5z"/>
	<path class="st0" d="M15.9,7.3L15.9,7.3l0-3.4c0-0.3-0.2-0.5-0.5-0.5c-0.3,0-0.5,0.2-0.5,0.5v0.4L7.9,7.1H4.3
		c-0.8,0-1.6,0.6-1.8,1.3H2c-1.1,0-2,0.9-2,2v0.5c0,1.1,0.9,2,2,2h0.5C2.7,13.5,3.2,14,4,14.1l1.8,5.4c0.2,0.6,0.8,1.1,1.5,1.1
		c0.2,0,0.3,0,0.5-0.1c0.8-0.3,1.2-1.1,1-1.9l-1.4-4.4h0.7l6.9,2.7v0.4c0,0.3,0.2,0.5,0.5,0.5c0.3,0,0.5-0.2,0.5-0.5v-3.4
		c1.8-0.3,3-2,2.7-3.8C18.4,8.7,17.3,7.6,15.9,7.3z M2.4,11.7H2c-0.5,0-0.9-0.4-0.9-0.9v-0.5c0-0.5,0.4-0.9,0.9-0.9h0.4V11.7z
		 M7.6,18.9c0.1,0.2-0.1,0.5-0.3,0.6c0,0,0,0,0,0c-0.1,0-0.2,0-0.4,0c-0.1-0.1-0.2-0.2-0.2-0.3l-1.7-5h1L7.6,18.9z M17.5,11.2
		c-0.2,0.8-0.8,1.5-1.7,1.7v0V12c0-0.3-0.2-0.5-0.5-0.5c-0.3,0-0.5,0.2-0.5,0.5v1.4c0,0,0,0,0,0c0,0,0,0,0,0v2.3l-6.3-2.5v-3.1
		c0-0.3-0.2-0.5-0.5-0.5c-0.3,0-0.5,0.2-0.5,0.5v2.9H4.3c-0.4,0-0.8-0.4-0.8-0.8V8.9c0-0.4,0.4-0.8,0.8-0.8h3.2v0.5
		C7.4,9,7.7,9.2,8,9.2c0.3,0,0.5-0.2,0.5-0.5V8l6.3-2.5v2.3c0,0,0,0,0,0c0,0,0,0,0,0v2.7c0,0.3,0.2,0.5,0.5,0.5
		c0.3,0,0.5-0.2,0.5-0.5V8.4C17.1,8.7,17.8,9.9,17.5,11.2z"/>
</g>
</svg>
