<svg xmlns="http://www.w3.org/2000/svg" width="65.336" height="41.823" viewBox="0 0 65.336 41.823">
  <path id="Path_15" data-name="Path 15" d="M3300.141,2711.231a3.166,3.166,0,0,0-4.27-1.344l-5.62,2.929c-3.764-3.256-12.129-1.792-14.785-1.217a.106.106,0,0,0-.016,0c-.015,0-.031,0-.046.007l-.716.187-.707-.187c-.012,0-.023,0-.034-.005s-.021-.009-.031-.011c-2.659-.575-11.053-2.042-14.783,1.219l-5.618-2.927a3.166,3.166,0,0,0-4.27,1.344l-6.863,13.167a3.169,3.169,0,0,0,1.344,4.27l6.591,3.435a7.393,7.393,0,0,1,.26,7.663,4.376,4.376,0,0,0,.3,3.373,4.41,4.41,0,0,0,3.907,2.357,4.378,4.378,0,0,0,1.193-.173,4.328,4.328,0,0,0,.465,1.551,4.408,4.408,0,0,0,2.591,2.187,4.5,4.5,0,0,0,1.348.208,4.353,4.353,0,0,0,2.027-.5l2.447-1.279a4.534,4.534,0,0,0,.459,1.461,4.435,4.435,0,0,0,3.915,2.4,4.2,4.2,0,0,0,1.947-.477l3.513-1.831,3.516,1.831a4.169,4.169,0,0,0,1.939.479,4.318,4.318,0,0,0,1.379-.229,4.448,4.448,0,0,0,2.537-2.177,4.539,4.539,0,0,0,.458-1.456l2.451,1.277a4.31,4.31,0,0,0,2.025.506,4.463,4.463,0,0,0,3.941-2.384,1.094,1.094,0,0,1,1.657-1.393,4.509,4.509,0,0,0,1.321-.2,4.408,4.408,0,0,0,.718-8.119l-.416-.217c.164-.163.336-.317.492-.487a8.428,8.428,0,0,0,2.038-4.2l6.91-3.6a3.17,3.17,0,0,0,1.344-4.27Zm-48,24.619c-.015-.028-.022-.058-.035-.086.144.2.3.388.458.574A1.543,1.543,0,0,1,3252.139,2735.85Zm3.348,6.569a1.515,1.515,0,0,1-1.146.106,1.543,1.543,0,0,1-.893-.744,1.511,1.511,0,0,1,.644-2.033l.836-.435a3.874,3.874,0,0,0,.59-.25l.144-.074a18.7,18.7,0,0,0,1.662,1l1.412.735Zm5.579,3.778a1.511,1.511,0,0,1-1.4-2.68l2.207-1.15c1.377.718,2.44,1.271,3.266,1.7Zm8.774,2.1a1.481,1.481,0,0,1-1.943-.682,1.58,1.58,0,0,1-.1-1.2,1.343,1.343,0,0,1,.512-.7l3.248,1.691Zm26.093-6.515a1.489,1.489,0,0,1-.875.739,1.538,1.538,0,0,1-1.157-.1l-3.739-1.947h0l-1.975-1.03a1.258,1.258,0,0,1-.648-.346l-6.222-3.324-6.271-3.347-1.369,2.561,6.271,3.349,6.223,3.323a1.388,1.388,0,0,1,.674.36l2.876,1.5a1.5,1.5,0,0,1-.248,2.775,1.467,1.467,0,0,1-1.143-.1l-6-3.13c-.01-.005-.018-.014-.028-.019l-.523-.277s-6.067-3.155-6.382-3.323l-.028-.015-3.481-1.812a1.452,1.452,0,0,0-1.35,2.572l1.129.587c.013.008.023.017.037.024l2.326,1.214.087.041,6.852,3.572a1.374,1.374,0,0,1,.635.787,1.577,1.577,0,0,1-.992,1.951,1.33,1.33,0,0,1-1.05-.071l-10.6-5.518a.205.205,0,0,0-.027-.014c-.314-.161-6.114-3.184-6.358-3.311l0,0-.019-.01-3.875-2.019a14.685,14.685,0,0,1-2.023-1.277l-.045-.033-.032-.023a11.982,11.982,0,0,1-1.752-1.567,5.469,5.469,0,0,1-1.249-2.388,5.068,5.068,0,0,1-.15-.909,5.723,5.723,0,0,1,.624-3.062l3.106-6.02a1.452,1.452,0,0,0-2.581-1.331l-3.1,6.014a8.511,8.511,0,0,0-.782,2.2l-5.617-2.927a.26.26,0,0,1-.111-.353l6.862-13.167a.254.254,0,0,1,.153-.129.26.26,0,0,1,.2.017l5.285,2.755-1.08,2.093a1.452,1.452,0,1,0,2.581,1.332l1.554-3.011a1.166,1.166,0,0,1,.116-.186c.9-1.3,3.465-1.908,6.913-1.775l-1.307.341a2.755,2.755,0,0,0-1.892,1.063,3.223,3.223,0,0,0-.337,2.586c.016.088.032.174.047.271l.081.485a4.232,4.232,0,0,0,2.013,2.955,5.2,5.2,0,0,0,2.735.8,4.648,4.648,0,0,0,.63-.042l3.963-.553,20.4,10.758a1.489,1.489,0,0,1,.739.884,1.509,1.509,0,0,1-.1,1.154,1.553,1.553,0,0,1-2.025.647l-.381-.2-15.385-8.025a1.453,1.453,0,0,0-1.959.616,1.435,1.435,0,0,0-.16.559,1.451,1.451,0,0,0,.776,1.407l15.618,8.14,2.013,1.05.006,0,2.273,1.186a1.5,1.5,0,0,1,.635,2.031Zm8.385-15.689-5.623,2.93a8.631,8.631,0,0,0-.748-2.146,1.452,1.452,0,1,0-2.59,1.313,5.755,5.755,0,0,1,.583,2.031,4.4,4.4,0,0,0-.712-.464l-17.7-9.334a1.436,1.436,0,0,0,.208-1,1.454,1.454,0,0,0-1.665-1.2l-2.53.411-4.426.617a2.225,2.225,0,0,1-1.419-.337,1.36,1.36,0,0,1-.687-.93l-.084-.508c-.017-.111-.039-.228-.061-.348-.014-.077-.032-.174-.047-.269l.081-.019,8.264-2.16,0,0,.912-.238h.008c6.235-1.353,11.333-.951,12.69,1.013.051.071.088.147.118.195l4.687,9.093a1.452,1.452,0,1,0,2.581-1.33l-4.226-8.195,5.28-2.752a.264.264,0,0,1,.354.112l6.862,13.167A.262.262,0,0,1,3304.317,2726.094Z" transform="translate(-3242.025 -2709.527)" fill="#00aaad"/>
</svg>
