<?xml version="1.0" encoding="utf-8"?>
<!-- Generator: Adobe Illustrator 24.2.3, SVG Export Plug-In . SVG Version: 6.00 Build 0)  -->
<svg version="1.1" id="Layer_1" xmlns="http://www.w3.org/2000/svg" xmlns:xlink="http://www.w3.org/1999/xlink" x="0px" y="0px"
	 viewBox="0 0 24 24" style="enable-background:new 0 0 24 24;" xml:space="preserve">
<style type="text/css">
	.st0{fill:#00AAAD;}
</style>
<path class="st0" d="M23.8,9.8L21.3,5c-0.3-0.6-1-0.8-1.6-0.5l-2.1,1.1c-1.4-1.2-4.4-0.7-5.4-0.4c0,0,0,0,0,0c0,0,0,0,0,0L12,5.2
	l-0.3-0.1c0,0,0,0,0,0c0,0,0,0,0,0c-1-0.2-4-0.7-5.4,0.4L4.3,4.5C3.7,4.2,3,4.4,2.7,5L0.2,9.8c-0.3,0.6-0.1,1.3,0.5,1.6l2.4,1.3
	c0.6,0.8,0.6,1.9,0.1,2.8c-0.1,0.4-0.1,0.9,0.1,1.2c0.3,0.5,0.8,0.9,1.4,0.9c0.1,0,0.3,0,0.4-0.1c0,0.2,0.1,0.4,0.2,0.6
	c0.2,0.4,0.5,0.7,0.9,0.8c0.2,0.1,0.3,0.1,0.5,0.1c0.3,0,0.5-0.1,0.7-0.2l0.9-0.5c0,0.2,0.1,0.4,0.2,0.5c0.3,0.5,0.8,0.9,1.4,0.9
	c0.2,0,0.5-0.1,0.7-0.2l1.3-0.7l1.3,0.7c0.2,0.1,0.5,0.2,0.7,0.2c0.2,0,0.3,0,0.5-0.1c0.4-0.1,0.7-0.4,0.9-0.8
	c0.1-0.2,0.1-0.3,0.2-0.5l0.9,0.5c0.2,0.1,0.5,0.2,0.7,0.2c0.6,0,1.2-0.3,1.4-0.9c-0.1-0.2-0.1-0.4,0.1-0.6c0.2-0.1,0.3-0.1,0.5,0
	c0.2,0,0.3,0,0.5-0.1c0.9-0.3,1.3-1.2,1.1-2c-0.1-0.4-0.4-0.8-0.8-0.9l-0.2-0.1c0.1-0.1,0.1-0.1,0.2-0.2c0.4-0.4,0.6-1,0.7-1.5
	l2.5-1.3C23.9,11.1,24.1,10.4,23.8,9.8z M3.8,14L3.8,14C3.7,14,3.7,14,3.8,14c0,0,0.1,0.1,0.2,0.2C3.8,14.1,3.8,14.1,3.8,14z
	 M5,16.4c-0.1,0.1-0.3,0.1-0.4,0c-0.1,0-0.3-0.1-0.3-0.3c-0.1-0.3,0-0.6,0.2-0.7l0.3-0.2c0.1,0,0.1-0.1,0.2-0.1l0.1,0
	c0.2,0.1,0.4,0.3,0.6,0.4l0.5,0.3L5,16.4z M7,17.8c-0.3,0.1-0.6,0-0.7-0.2c-0.1-0.3,0-0.6,0.2-0.7l0.8-0.4c0.5,0.3,0.9,0.5,1.2,0.6
	L7,17.8z M10.2,18.5c-0.3,0.1-0.6,0-0.7-0.2c-0.1-0.1-0.1-0.3,0-0.4c0-0.1,0.1-0.2,0.2-0.3l1.2,0.6L10.2,18.5z M19.8,16.2
	C19.8,16.2,19.8,16.2,19.8,16.2L19.8,16.2c-0.1,0.1-0.2,0.2-0.3,0.3c-0.1,0-0.3,0-0.4,0l-1.4-0.7l-0.7-0.4c-0.1,0-0.2-0.1-0.2-0.1
	L14.4,14l-2.3-1.2l-0.5,0.9l2.3,1.2l2.3,1.2c0.1,0,0.2,0.1,0.2,0.1l1.1,0.5c0.3,0.1,0.4,0.5,0.2,0.7c-0.1,0.1-0.2,0.2-0.3,0.3
	c-0.1,0-0.3,0-0.4,0l-2.2-1.1c0,0,0,0,0,0l-0.2-0.1c0,0-2.2-1.2-2.3-1.2l0,0L11,14.6c-0.3-0.1-0.6,0-0.7,0.2c-0.1,0.3,0,0.6,0.2,0.7
	l0.4,0.2c0,0,0,0,0,0l0.9,0.4l0,0l2.5,1.3c0.1,0.1,0.2,0.2,0.2,0.3c0.1,0.3-0.1,0.6-0.4,0.7c-0.1,0-0.3,0-0.4,0l-3.9-2c0,0,0,0,0,0
	c-0.1-0.1-2.2-1.2-2.3-1.2l0,0l-1.4-0.7c-0.3-0.1-0.5-0.3-0.7-0.5l0,0l0,0c-0.2-0.2-0.4-0.4-0.6-0.6c-0.2-0.2-0.4-0.5-0.5-0.9
	c0-0.1,0-0.2-0.1-0.3c0-0.4,0-0.8,0.2-1.1L5.6,9c0.1-0.3,0-0.6-0.2-0.7c-0.3-0.1-0.6,0-0.7,0.2l-1.1,2.2c-0.1,0.3-0.2,0.5-0.3,0.8
	l-2.1-1.1c0,0-0.1-0.1,0-0.1c0,0,0,0,0,0l2.5-4.8c0,0,0,0,0.1,0c0,0,0.1,0,0.1,0l1.9,1L5.3,7.2c-0.1,0.3,0,0.6,0.2,0.7
	s0.6,0,0.7-0.2l0.6-1.1c0,0,0,0,0-0.1C7.2,6,8.1,5.8,9.4,5.9L8.9,6C8.6,6,8.4,6.2,8.2,6.4C8,6.7,8,7,8.1,7.3c0,0,0,0.1,0,0.1l0,0.2
	c0.1,0.5,0.3,0.8,0.7,1.1C9.2,8.9,9.5,9,9.9,9C10,9,10,9,10.1,9l1.4-0.2l7.5,3.9c0.1,0.1,0.2,0.2,0.3,0.3c0,0.1,0,0.3,0,0.4
	c-0.1,0.3-0.5,0.4-0.7,0.2l-0.1-0.1l-5.6-2.9c-0.3-0.1-0.6,0-0.7,0.2C12,11,12,11,12,11.1c0,0.2,0.1,0.4,0.3,0.5l5.7,3l0.7,0.4h0
	l0.8,0.4C19.8,15.6,19.9,15.9,19.8,16.2z M22.8,10.4l-2.1,1.1c-0.1-0.3-0.1-0.5-0.3-0.8c-0.1-0.3-0.4-0.4-0.7-0.2
	c-0.3,0.1-0.4,0.4-0.2,0.7c0,0,0,0,0,0c0.1,0.2,0.2,0.5,0.2,0.7c-0.1-0.1-0.2-0.1-0.3-0.2L13,8.3c0.1-0.1,0.1-0.2,0.1-0.4
	c0-0.3-0.3-0.5-0.6-0.4l-0.9,0.2L10,7.9c-0.2,0-0.4,0-0.5-0.1C9.3,7.7,9.2,7.6,9.2,7.4l0-0.2c0,0,0-0.1,0-0.1c0,0,0-0.1,0-0.1l0,0
	l3-0.8l0.3-0.1h0c2.3-0.5,4.1-0.3,4.6,0.4c0,0,0,0.1,0,0.1l1.7,3.3c0.1,0.3,0.4,0.4,0.7,0.2c0.3-0.1,0.4-0.4,0.2-0.7c0,0,0,0,0,0
	l-1.5-3l1.9-1c0,0,0.1,0,0.1,0l2.5,4.8C22.9,10.3,22.9,10.4,22.8,10.4L22.8,10.4z"/>
</svg>
